<svg width="43" height="24" viewBox="0 0 43 24" fill="none" xmlns="http://www.w3.org/2000/svg">
<path fill-rule="evenodd" clip-rule="evenodd" d="M21.8555 0.246718C21.3806 -0.0822395 20.7516 -0.0822395 20.2768 0.246718L0.596813 13.4742C-0.0324051 13.9101 -0.189092 14.7736 0.246843 15.4028C0.682779 16.032 1.54626 16.1887 2.17548 15.7528L4.21589 14.3831L4.21588 21.9473C4.21588 22.7128 4.83642 23.3333 5.6019 23.3333C6.36738 23.3333 6.98792 22.7128 6.98792 21.9473L6.98793 12.5223L21.0661 3.07218L30.0365 9.09367C30.2348 9.38579 30.5418 9.5982 30.8993 9.67285L35.1459 12.5234L35.1458 21.9473C35.1458 22.7128 35.7664 23.3333 36.5319 23.3333C37.2973 23.3333 37.9179 22.7128 37.9179 21.9473L37.9179 14.3841L39.9568 15.7528C40.586 16.1887 41.4495 16.032 41.8854 15.4028C42.3214 14.7736 42.1647 13.9101 41.5354 13.4742L32.5701 7.44829V1.94041C32.5701 1.17493 31.9495 0.554389 31.184 0.554389C30.4186 0.554389 29.798 1.17493 29.798 1.94041V5.58513L21.8555 0.246718Z" fill="white"/>
</svg>
